<svg width="1440" height="331" viewBox="0 0 1440 331" fill="none" xmlns="http://www.w3.org/2000/svg">
<rect y="196" width="1440" height="135" fill="#29680E"/>
<rect x="221.226" y="-7.62939e-06" width="180.946" height="180.946" rx="90.473" fill="#598C3F"/>
<ellipse cx="311.699" cy="239.754" rx="14.4757" ry="3.61892" fill="black" fill-opacity="0.25"/>
<path d="M312.139 240.038V151.323M312.139 151.323L336.334 127.127M312.139 151.323V137.881M312.139 137.881L286.599 112.342M312.139 137.881V90.1628" stroke="#643200" stroke-width="5"/>
<rect width="180.946" height="180.946" rx="90.473" transform="matrix(-1 0 0 1 1215.52 -7.62939e-06)" fill="#598C3F"/>
<ellipse cx="14.4757" cy="3.61892" rx="14.4757" ry="3.61892" transform="matrix(-1 0 0 1 1139.53 236.135)" fill="black" fill-opacity="0.25"/>
<path d="M1124.61 240.038V151.323M1124.61 151.323L1100.42 127.127M1124.61 151.323V137.881M1124.61 137.881L1150.15 112.342M1124.61 137.881V90.1628" stroke="#643200" stroke-width="5"/>
<rect x="121.706" y="101.33" width="105.608" height="105.608" rx="52.8039" fill="#598C3F"/>
<ellipse cx="174.51" cy="241.26" rx="8.44863" ry="2.11216" fill="black" fill-opacity="0.25"/>
<path d="M174.766 241.426V189.648M174.766 189.648L188.887 175.527M174.766 189.648V181.803M174.766 181.803L159.86 166.897M174.766 181.803V153.953" stroke="#643200" stroke-width="5"/>
<rect width="105.608" height="105.608" rx="52.8039" transform="matrix(-1 0 0 1 1315.04 101.33)" fill="#598C3F"/>
<ellipse cx="8.44863" cy="2.11216" rx="8.44863" ry="2.11216" transform="matrix(-1 0 0 1 1270.69 239.148)" fill="black" fill-opacity="0.25"/>
<path d="M1261.98 241.426V189.648M1261.98 189.648L1247.86 175.527M1261.98 189.648V181.803M1261.98 181.803L1276.89 166.897M1261.98 181.803V153.953" stroke="#643200" stroke-width="5"/>
<rect x="364.173" y="158.328" width="63.3311" height="63.3311" rx="31.6656" fill="#598C3F"/>
<ellipse cx="395.839" cy="242.241" rx="5.06649" ry="1.26662" fill="black" fill-opacity="0.25"/>
<path d="M395.993 242.341V211.29M395.993 211.29L404.461 202.822M395.993 211.29V206.586M395.993 206.586L387.054 197.647M395.993 206.586V189.885" stroke="#643200" stroke-width="5"/>
<rect width="63.3311" height="63.3311" rx="31.6656" transform="matrix(-1 0 0 1 1072.58 158.328)" fill="#598C3F"/>
<ellipse cx="5.06649" cy="1.26662" rx="5.06649" ry="1.26662" transform="matrix(-1 0 0 1 1045.98 240.975)" fill="black" fill-opacity="0.25"/>
<path d="M1040.76 242.341V211.29M1040.76 211.29L1032.29 202.822M1040.76 211.29V206.586M1040.76 206.586L1049.7 197.647M1040.76 206.586V189.885" stroke="#643200" stroke-width="5"/>
</svg>
